<?xml version="1.0" encoding="utf-8"?>
<!-- Generator: Adobe Illustrator 15.0.0, SVG Export Plug-In . SVG Version: 6.00 Build 0)  -->
<!DOCTYPE svg PUBLIC "-//W3C//DTD SVG 1.1//EN" "http://www.w3.org/Graphics/SVG/1.1/DTD/svg11.dtd">
<svg version="1.1" id="Layer_1" xmlns="http://www.w3.org/2000/svg" xmlns:xlink="http://www.w3.org/1999/xlink" x="0px" y="0px"
	 width="64px" height="64px" viewBox="0 0 64 64" enable-background="new 0 0 64 64" xml:space="preserve">
<g>
	<path fill="#009444" d="M50.18,33.438c-6.048,0-9.471-1.443-13.211-3.019c-2.75-1.159-5.594-2.357-9.851-3.173
		C16.649,25.242,5.62,29.67,0,32.008C0.005,49.678,14.33,64,32,64c17.673,0,32-14.327,32-32c0-0.099-0.007-0.196-0.008-0.294
		C58.122,32.939,53.697,33.438,50.18,33.438z"/>
	<path fill="#009444" d="M27.494,25.282c4.463,0.855,7.538,2.151,10.251,3.294c5.879,2.477,10.547,4.436,26.162,1.107
		C62.719,13.092,48.893,0,32,0C15.064,0,1.21,13.159,0.083,29.81C6.104,27.333,16.965,23.263,27.494,25.282z"/>
</g>
</svg>
