<?xml version="1.0" encoding="utf-8"?>
<!-- Generator: Adobe Illustrator 15.0.0, SVG Export Plug-In . SVG Version: 6.00 Build 0)  -->
<!DOCTYPE svg PUBLIC "-//W3C//DTD SVG 1.1//EN" "http://www.w3.org/Graphics/SVG/1.1/DTD/svg11.dtd">
<svg version="1.1" id="Layer_1" xmlns="http://www.w3.org/2000/svg" xmlns:xlink="http://www.w3.org/1999/xlink" x="0px" y="0px"
	 width="64px" height="64px" viewBox="0 0 64 64" enable-background="new 0 0 64 64" xml:space="preserve">
<g>
	<path d="M15.228,42.046c0.353-1.322,0.7-4.521,0.941-6.755c0.681-6.292,1.011-8.224,1.883-8.902
		c0.267-0.207,0.605-0.292,0.943-0.241c0.958,0.145,1.806,1.251,4.177,4.639c1.403,2.003,4.289,6.125,5.387,6.351
		c0.048-0.074,0.135-0.247,0.215-0.604l0.279-1.262c3.526-16.004,5.472-21.534,7.708-21.915c0.411-0.071,0.975,0.147,1.84,0.992
		c3.231,3.155,15.739,11.791,20.686,13.093L32,0.273L2.56,29.713C7.808,35.322,13.302,40.779,15.228,42.046z"/>
	<path d="M61.317,29.465c-0.164,0.045-0.34,0.082-0.546,0.096c-4.504,0.292-20.584-10.124-23.82-14.079
		c-0.877,1.502-3.276,8.109-5.945,20.22l-0.28,1.265c-0.278,1.251-0.861,1.972-1.733,2.146c-1.996,0.393-4.147-2.449-7.458-7.178
		c-0.779-1.112-1.77-2.527-2.431-3.306c-0.363,1.489-0.705,4.645-0.946,6.878c-0.665,6.144-0.964,7.898-1.8,8.537
		c-0.159,0.122-0.335,0.256-0.639,0.256c-1.134,0-4.06-1.866-14.577-13.168l-1.005,1.005L32,64l31.932-31.932L61.317,29.465z"/>
</g>
</svg>
