<?xml version="1.0" encoding="utf-8"?>
<!-- Generator: Adobe Illustrator 15.0.0, SVG Export Plug-In . SVG Version: 6.00 Build 0)  -->
<!DOCTYPE svg PUBLIC "-//W3C//DTD SVG 1.1//EN" "http://www.w3.org/Graphics/SVG/1.1/DTD/svg11.dtd">
<svg version="1.1" id="Layer_1" xmlns="http://www.w3.org/2000/svg" xmlns:xlink="http://www.w3.org/1999/xlink" x="0px" y="0px"
	 width="64px" height="64px" viewBox="0 0 64 64" enable-background="new 0 0 64 64" xml:space="preserve">
<g>
	<path d="M26.073,37.614c0.403-0.64,0.703-1.77,0.973-2.783c0.509-1.915,0.991-3.724,2.427-4.19
		c0.834-0.271,1.723-0.007,2.721,0.806c0.539,0.438,1.033,0.892,1.498,1.318c1.061,0.976,1.969,1.82,2.633,1.683
		c0.621-0.127,1.744-1.129,3.562-5.172c1.549-3.446,2.326-6.825,2.951-9.541c0.783-3.409,1.257-5.466,2.805-5.966
		c1.269-0.411,2.459,0.637,2.851,0.98c5.323,4.671,8.567,6.949,10.56,7.984L46.917,0L32,25.667L17.083,0L7.247,18.425
		C17.818,30.351,24.146,36.802,26.073,37.614z"/>
	<path d="M60.443,25.338c-3.078-0.652-7.629-4.136-13.269-9.086c-0.714-0.626-0.933-0.582-0.93-0.578
		c-0.476,0.236-1.044,2.706-1.459,4.509c-0.644,2.801-1.445,6.287-3.075,9.913c-1.859,4.137-3.304,5.966-4.983,6.311
		c-1.645,0.347-2.982-0.878-4.388-2.169c-0.437-0.4-0.901-0.828-1.408-1.24c-0.531-0.433-0.799-0.466-0.841-0.454
		c-0.401,0.13-0.881,1.935-1.112,2.802c-0.396,1.487-0.804,3.024-1.673,3.932c-0.258,0.269-0.616,0.416-1.012,0.416
		c-0.011,0-0.023-0.001-0.035-0.001c-2.063-0.044-7.592-5.375-20.017-19.383L0,32l17.083,32L32,38.834L46.917,64L64,32
		L60.443,25.338z"/>
</g>
</svg>
