<?xml version="1.0" encoding="utf-8"?>
<!-- Generator: Adobe Illustrator 15.0.0, SVG Export Plug-In . SVG Version: 6.00 Build 0)  -->
<!DOCTYPE svg PUBLIC "-//W3C//DTD SVG 1.1//EN" "http://www.w3.org/Graphics/SVG/1.1/DTD/svg11.dtd">
<svg version="1.1" id="Layer_1" xmlns="http://www.w3.org/2000/svg" xmlns:xlink="http://www.w3.org/1999/xlink" x="0px" y="0px"
	 width="64px" height="64px" viewBox="0 0 64 64" enable-background="new 0 0 64 64" xml:space="preserve">
<g>
	<path fill="#00AEEF" d="M48.77,17.663c-1.096-1.541-2.302-2.255-3.692-2.187c-6.734,0.336-16.748,17.886-23.374,29.498
		c-1.866,3.271-3.628,6.359-5.105,8.723c-1.352,2.163-2.861,3.256-4.491,3.256c-0.132,0-0.265-0.007-0.398-0.021
		C7.444,56.475,3.914,48.812,0,38.27V64h64V37.758c-3.813-4.099-8.265-10.229-13.22-17.251
		C50.085,19.521,49.413,18.568,48.77,17.663z"/>
	<path fill="#00AEEF" d="M11.923,54.943c0.962,0.103,1.958-0.673,2.979-2.307c1.456-2.329,3.208-5.4,5.064-8.653
		c7.655-13.416,17.183-30.113,25.011-30.504c2.093-0.108,3.919,0.913,5.421,3.025c0.646,0.906,1.319,1.862,2.017,2.849
		c3.22,4.562,7.608,10.778,11.585,15.4V0H0v32.418c0.087,0.241,0.174,0.483,0.262,0.729C3.318,41.656,7.937,54.516,11.923,54.943z"
		/>
</g>
</svg>
