<?xml version="1.0" encoding="utf-8"?>
<!-- Generator: Adobe Illustrator 19.0.0, SVG Export Plug-In . SVG Version: 6.00 Build 0)  -->
<svg version="1.1" id="Layer_1" xmlns="http://www.w3.org/2000/svg" xmlns:xlink="http://www.w3.org/1999/xlink" x="0px" y="0px"
	 viewBox="-165 21.6 64 64" style="enable-background:new -165 21.6 64 64;" xml:space="preserve">
<style type="text/css">
	.st0{fill:#E18500;}
</style>
<g>
	<path class="st0" d="M-138.9,59.2c0.4-0.6,0.7-1.8,1-2.8c0.5-1.9,1-3.7,2.4-4.2c0.8-0.3,1.7,0,2.7,0.8c0.5,0.4,1,0.9,1.5,1.3
		c1.1,1,2,1.8,2.6,1.7c0.6-0.1,1.7-1.1,3.6-5.2c1.5-3.4,2.3-6.8,3-9.5c0.8-3.4,1.3-5.5,2.8-6c1.3-0.4,2.5,0.6,2.9,1
		c5.3,4.7,8.6,6.9,10.6,8l-12.1-22.7L-133,47.2l-14.9-25.7l-9.8,18.4C-147.2,51.9-140.9,58.4-138.9,59.2z"/>
	<path class="st0" d="M-104.6,46.9c-3.1-0.7-7.6-4.1-13.3-9.1c-0.7-0.6-0.9-0.6-0.9-0.6c-0.5,0.2-1,2.7-1.5,4.5
		c-0.6,2.8-1.4,6.3-3.1,9.9c-1.9,4.1-3.3,6-5,6.3c-1.6,0.3-3-0.9-4.4-2.2c-0.4-0.4-0.9-0.8-1.4-1.2c-0.5-0.4-0.8-0.5-0.8-0.5
		c-0.4,0.1-0.9,1.9-1.1,2.8c-0.4,1.5-0.8,3-1.7,3.9c-0.3,0.3-0.6,0.4-1,0.4c0,0,0,0,0,0c-2.1,0-7.6-5.4-20-19.4l-6.2,11.7l17.1,32
		l14.9-25.2l14.9,25.2l17.1-32L-104.6,46.9z"/>
</g>
</svg>
